<svg width="72" height="17" viewBox="0 0 72 17" fill="none" xmlns="http://www.w3.org/2000/svg">
<g opacity="0.7" clip-path="url(#clip0_31_518)">
<path fill-rule="evenodd" clip-rule="evenodd" d="M8.55192 11.0931C10.0143 11.3208 10.212 12.1938 10.3302 13.0062L10.3499 13.1447L10.3633 13.239L10.4345 13.7171C10.5738 14.63 10.8644 16.5249 10.8644 17.5138C10.8644 17.7609 10.8429 17.9506 10.8035 18.0548C10.7379 18.2154 10.5467 18.3696 10.2827 18.498C9.64397 18.6566 8.97631 18.7424 8.28858 18.7424C8.21576 18.7424 8.14412 18.7389 8.07222 18.7367C7.79428 18.6571 7.58538 18.5241 7.47478 18.3424C7.14082 17.794 7.1207 16.5721 7.11401 15.1442L7.11324 14.9786L7.11054 14.5506C7.09966 13.039 7.09032 11.7356 7.63471 11.2679C7.84555 11.088 8.14514 11.0285 8.55192 11.0931ZM5.36359 14.3841C5.68049 14.3662 5.88429 15.9387 5.92524 17.1311C5.95394 17.9612 5.86754 18.3027 5.72957 18.4253C5.57336 18.3727 5.41986 18.3158 5.26861 18.254C5.16771 18.069 5.09059 17.7781 5.04159 17.3969C4.89201 16.1993 5.02195 14.4053 5.36359 14.3841ZM13.3084 16.734C13.2886 16.8433 13.2607 16.9276 13.2264 16.9988C12.9554 17.2182 12.6706 17.4196 12.3726 17.6007C12.2777 17.6169 12.1934 17.6056 12.1522 17.5354C11.7572 16.8352 11.609 14.6388 11.9912 14.4476C12.4895 14.2048 13.3822 16.3543 13.3084 16.734ZM8.17062 2.25757C12.6202 2.25757 16.2386 5.81243 16.3384 10.2359L16.3404 10.3888V10.4595C16.3323 12.4576 15.6034 14.2856 14.4026 15.7005C14.359 15.6785 14.2795 15.6063 14.1356 15.3891C13.9866 15.1707 12.7021 13.1764 12.7021 10.8905C12.7021 10.4419 13.343 9.74117 13.9102 9.12608C14.3342 8.66322 14.7358 8.22663 14.8837 7.88349C15.0721 7.44071 14.9403 7.13155 14.7318 7.02675C14.5431 6.93361 14.2599 7.00155 14.0611 7.35772C13.7349 7.93418 13.6304 8.0419 13.1546 8.42759C12.6863 8.81308 11.942 9.20114 11.942 8.69882C11.942 8.42759 12.3566 7.81332 12.5614 7.38276C12.7706 6.94739 12.5451 6.63221 12.1132 6.63221C11.2651 6.63221 10.7021 7.72214 10.7021 8.09975C10.7021 8.47704 10.8835 8.53077 10.8835 8.97015C10.8835 9.41282 9.95301 9.987 9.07644 9.987C8.23251 9.987 7.74312 9.81469 7.54034 9.32921L7.51445 9.26105L7.45583 9.08611C7.2479 8.47303 7.09874 8.0284 6.83908 7.56373C6.70121 7.318 6.48848 7.14765 6.30449 6.99777C6.06403 6.80934 5.93929 6.63585 5.91324 6.50646C5.88924 6.37808 5.87632 6.13616 6.28739 5.57849C6.69758 5.024 6.75508 4.60511 6.54981 4.38897C6.47541 4.31208 6.34856 4.26282 6.18567 4.26282C5.89757 4.26282 5.49723 4.41682 5.08466 4.83984C4.44332 5.50282 4.80741 6.13228 4.80741 6.4086C4.80741 6.68474 4.68992 6.84094 4.30504 7.21662C3.91735 7.59397 3.78355 7.91749 3.73921 9.21773C3.72222 9.88768 3.60527 10.2733 3.50028 10.6153C3.40956 10.915 3.32612 11.1968 3.32162 11.6039C3.31443 12.0551 3.38887 12.3458 3.47574 12.6813C3.56103 12.9914 3.65162 13.3467 3.70966 13.941C3.80197 14.861 3.76988 15.6382 3.60204 16.4325L3.55725 16.6315L3.54678 16.6887C3.51241 16.8283 3.47155 16.9978 3.41633 17.0613C1.34847 15.5796 0 13.1597 0 10.4243C0 5.91434 3.65796 2.25757 8.17062 2.25757Z" fill="#F14635"/>
<path d="M47.545 7.90923C48.3533 7.90923 48.9818 8.19802 49.4305 8.77561C49.8791 9.3532 50.1034 10.1471 50.1034 11.1574V11.2514C50.1034 12.2382 49.8741 13.0263 49.4154 13.6156C48.9565 14.2049 48.3372 14.4996 47.5571 14.4996C46.9549 14.4996 46.4597 14.2862 46.0717 13.8594V17.0662H44.0286V8.02673H45.9383L45.999 8.61411C46.391 8.14419 46.9063 7.90923 47.545 7.90923ZM33.298 7.90923C34.1347 7.90923 34.7955 8.10699 35.2805 8.50247C35.7655 8.89801 36.0141 9.44036 36.0262 10.1295V12.9431C36.0344 13.5265 36.1273 13.9729 36.3051 14.2823V14.3822H34.262C34.1893 14.2529 34.1246 14.063 34.068 13.8124C33.6921 14.2705 33.1667 14.4996 32.4917 14.4996C31.8733 14.4996 31.3479 14.3185 30.9154 13.9563C30.4829 13.5941 30.2666 13.1388 30.2666 12.5906C30.2666 11.9014 30.5294 11.3806 31.0548 11.0282C31.5803 10.6758 32.3442 10.4996 33.3465 10.4996H33.977V10.1648C33.977 9.5813 33.7164 9.28957 33.1949 9.28957C32.7099 9.28957 32.4674 9.52062 32.4674 9.98266H30.4243C30.4243 9.36788 30.694 8.86864 31.2337 8.48486C31.7732 8.10112 32.4614 7.90923 33.298 7.90923ZM39.9486 7.90923C40.8135 7.90923 41.5087 8.09916 42.0341 8.47898C42.5596 8.85886 42.8223 9.35809 42.8223 9.97679H40.7732C40.7732 9.46776 40.4963 9.21323 39.9426 9.21323C39.7283 9.21323 39.5485 9.27098 39.403 9.38647C39.2574 9.50202 39.1847 9.6459 39.1847 9.81822C39.1847 9.99446 39.2736 10.1374 39.4514 10.247C39.6293 10.3567 39.9132 10.4467 40.3032 10.5172C40.6933 10.5877 41.0358 10.6719 41.3309 10.7698C42.3171 11.0987 42.8102 11.688 42.8102 12.5378C42.8102 13.1173 42.5445 13.5892 42.013 13.9533C41.4814 14.3175 40.7933 14.4996 39.9486 14.4996C39.3868 14.4996 38.8856 14.4017 38.4451 14.2059C38.0045 14.0101 37.6609 13.7438 37.4144 13.4071C37.1678 13.0703 37.0445 12.7159 37.0445 12.344H38.9543C38.9624 12.6376 39.0634 12.852 39.2574 12.9871C39.4514 13.1222 39.7 13.1897 40.0031 13.1897C40.282 13.1897 40.4913 13.1349 40.6307 13.0253C40.7701 12.9156 40.8398 12.7727 40.8398 12.5965C40.8398 12.4281 40.7489 12.293 40.567 12.1912C40.3851 12.0894 40.0395 11.9837 39.5303 11.874C39.021 11.7644 38.6007 11.6205 38.2692 11.4423C37.9378 11.2641 37.6852 11.0478 37.5114 10.7933C37.3376 10.5387 37.2507 10.247 37.2507 9.91806C37.2507 9.3346 37.4993 8.85396 37.9964 8.47605C38.4935 8.09818 39.1443 7.90923 39.9486 7.90923ZM24.5982 5.34876V9.60088L27.4899 5.34876H30.1212L26.8899 9.61263L29.8728 14.3822H27.3507L25.4713 11.1986L24.5982 12.1266V14.3822H22.4702V5.34876H24.5982ZM53.4073 8.02673V14.3822H51.3581V8.02673H53.4073ZM71.4246 8.02673V9.09572L68.5028 12.8549H71.4915V14.3822H65.92V13.2779L68.8301 9.5539H65.4017L66.7671 8.02673H71.4246ZM56.1469 12.3321C56.706 12.3321 57.1584 12.7725 57.1584 13.3158C57.1584 13.8591 56.706 14.2995 56.1469 14.2995C55.5882 14.2995 55.1353 13.8591 55.1353 13.3158C55.1353 12.7725 55.5882 12.3321 56.1469 12.3321ZM60.8917 5.34851V10.0951L61.098 9.83332L62.6422 7.99515H65.0978L62.7943 10.5837L65.25 14.289H62.9036L61.4692 11.9448L60.8917 12.4974V14.289H58.843V5.34851H60.8917ZM33.977 11.5569H33.3829C32.6715 11.5569 32.3159 11.8662 32.3159 12.4849C32.3159 12.6651 32.3785 12.8109 32.5038 12.9225C32.6291 13.0341 32.7887 13.0899 32.9828 13.0899C33.2374 13.0899 33.4486 13.037 33.6163 12.9313C33.7841 12.8256 33.9043 12.7062 33.977 12.573V11.5569ZM47.0418 9.43644C46.5568 9.43644 46.2333 9.6048 46.0717 9.94155V12.4438C46.2495 12.7962 46.5769 12.9724 47.0539 12.9724C47.7046 12.9724 48.0401 12.4281 48.0602 11.3395V11.128C48.0602 10.0003 47.7208 9.43644 47.0418 9.43644ZM52.4105 5.34851C52.9692 5.34851 53.4221 5.8099 53.4221 6.37907C53.4221 6.94824 52.9692 7.40963 52.4105 7.40963C51.8519 7.40963 51.3989 6.94824 51.3989 6.37907C51.3989 5.8099 51.8519 5.34851 52.4105 5.34851Z" fill="black"/>
</g>
<defs>
<clipPath id="clip0_31_518">
<rect width="72" height="17" fill="white"/>
</clipPath>
</defs>
</svg>
